<?xml version="1.0" standalone="no"?>
<!DOCTYPE svg PUBLIC "-//W3C//DTD SVG 20010904//EN"
 "http://www.w3.org/TR/2001/REC-SVG-20010904/DTD/svg10.dtd">
<svg version="1.0" xmlns="http://www.w3.org/2000/svg"
 width="487.000000pt" height="512.000000pt" viewBox="0 0 487.000000 512.000000"
 preserveAspectRatio="xMidYMid meet">
<metadata>
Created by potrace 1.15, written by Peter Selinger 2001-2017
</metadata>
<g transform="translate(0.000000,512.000000) scale(0.100000,-0.100000)"
fill="#000000" stroke="none">
<path d="M2295 4989 c-535 -66 -1001 -292 -1372 -666 -109 -110 -251 -292
-322 -412 l-43 -73 -279 278 -279 279 0 -798 0 -797 797 0 798 0 -344 344
-344 344 56 95 c320 537 858 874 1460 916 764 53 1483 -382 1799 -1090 120
-270 177 -602 149 -879 -84 -833 -696 -1497 -1516 -1646 -125 -23 -460 -26
-575 -6 -339 60 -611 184 -877 399 -232 188 -447 481 -555 760 l-16 43 -261 0
-261 0 6 -27 c15 -63 79 -235 121 -327 330 -720 1004 -1226 1784 -1340 147
-22 521 -22 672 0 381 55 742 205 1056 438 132 99 355 320 449 446 238 319
381 651 448 1040 25 148 30 495 10 659 -54 424 -235 843 -508 1179 -381 468
-949 777 -1550 842 -113 12 -401 11 -503 -1z"/>
<path d="M2192 3153 l3 -627 568 -338 c312 -187 572 -336 576 -333 13 7 191
300 191 312 0 5 -218 141 -485 302 l-485 293 0 509 0 509 -185 0 -185 0 2
-627z"/>
</g>
</svg>
